<svg xmlns="http://www.w3.org/2000/svg" xmlns:xlink="http://www.w3.org/1999/xlink" width="138" zoomAndPan="magnify" viewBox="0 0 103.5 36.000001" height="48" preserveAspectRatio="xMidYMid meet" version="1.0"><defs><g/><clipPath id="facba3394f"><path d="M 0.0507812 2 L 8 2 L 8 8 L 0.0507812 8 Z M 0.0507812 2 " clip-rule="nonzero"/></clipPath><clipPath id="3ed1927b50"><rect x="0" width="15" y="0" height="10"/></clipPath></defs><g fill="#000000" fill-opacity="1"><g transform="translate(3.401603, 26.270272)"><g><path d="M 2.296875 0 L 2.296875 -19.8125 L 14.546875 -19.8125 L 14.546875 -17.609375 L 4.796875 -17.609375 L 4.796875 -11.140625 L 13.875 -11.140625 L 13.875 -8.921875 L 4.796875 -8.921875 L 4.796875 -2.203125 L 14.640625 -2.203125 L 14.640625 0 Z M 2.296875 0 "/></g></g></g><g fill="#000000" fill-opacity="1"><g transform="translate(19.64153, 26.270272)"><g><path d="M 0.765625 0 L 6.625 -8.4375 L 6.609375 -6.625 L 1.0625 -14.6875 L 3.828125 -14.6875 L 5.6875 -11.828125 C 6.144531 -11.117188 6.550781 -10.453125 6.90625 -9.828125 C 7.257812 -9.203125 7.617188 -8.59375 7.984375 -8 L 6.765625 -8 C 7.148438 -8.59375 7.503906 -9.203125 7.828125 -9.828125 C 8.160156 -10.453125 8.554688 -11.117188 9.015625 -11.828125 L 10.921875 -14.6875 L 13.625 -14.6875 L 8.0625 -6.546875 L 8.0625 -8.296875 L 13.875 0 L 11.109375 0 L 8.921875 -3.3125 C 8.484375 -3.988281 8.085938 -4.628906 7.734375 -5.234375 C 7.390625 -5.835938 7.035156 -6.425781 6.671875 -7 L 7.90625 -7 C 7.539062 -6.425781 7.195312 -5.835938 6.875 -5.234375 C 6.550781 -4.628906 6.164062 -3.988281 5.71875 -3.3125 L 3.5 0 Z M 0.765625 0 "/></g></g></g><g fill="#000000" fill-opacity="1"><g transform="translate(34.27209, 26.270272)"><g><path d="M 2.015625 5.5625 L 2.015625 -14.6875 L 4.296875 -14.6875 L 4.296875 -12.359375 L 4.515625 -12.359375 C 4.703125 -12.691406 4.960938 -13.050781 5.296875 -13.4375 C 5.640625 -13.832031 6.09375 -14.171875 6.65625 -14.453125 C 7.226562 -14.742188 7.957031 -14.890625 8.84375 -14.890625 C 10.082031 -14.890625 11.171875 -14.578125 12.109375 -13.953125 C 13.046875 -13.335938 13.78125 -12.460938 14.3125 -11.328125 C 14.84375 -10.191406 15.109375 -8.851562 15.109375 -7.3125 C 15.109375 -5.757812 14.84375 -4.410156 14.3125 -3.265625 C 13.789062 -2.128906 13.0625 -1.25 12.125 -0.625 C 11.1875 0 10.097656 0.3125 8.859375 0.3125 C 7.992188 0.3125 7.273438 0.164062 6.703125 -0.125 C 6.128906 -0.414062 5.671875 -0.757812 5.328125 -1.15625 C 4.992188 -1.550781 4.722656 -1.921875 4.515625 -2.265625 L 4.375 -2.265625 L 4.375 5.5625 Z M 8.5 -1.8125 C 9.40625 -1.8125 10.171875 -2.050781 10.796875 -2.53125 C 11.421875 -3.007812 11.894531 -3.664062 12.21875 -4.5 C 12.539062 -5.332031 12.703125 -6.273438 12.703125 -7.328125 C 12.703125 -8.378906 12.539062 -9.316406 12.21875 -10.140625 C 11.894531 -10.960938 11.421875 -11.609375 10.796875 -12.078125 C 10.171875 -12.546875 9.40625 -12.78125 8.5 -12.78125 C 7.59375 -12.78125 6.828125 -12.550781 6.203125 -12.09375 C 5.585938 -11.632812 5.117188 -11 4.796875 -10.1875 C 4.472656 -9.375 4.3125 -8.421875 4.3125 -7.328125 C 4.3125 -6.234375 4.472656 -5.269531 4.796875 -4.4375 C 5.117188 -3.613281 5.59375 -2.96875 6.21875 -2.5 C 6.851562 -2.039062 7.613281 -1.8125 8.5 -1.8125 Z M 8.5 -1.8125 "/></g></g></g><g fill="#000000" fill-opacity="1"><g transform="translate(50.671623, 26.270272)"><g><path d="M 8.15625 0.3125 C 6.738281 0.3125 5.515625 -0.00390625 4.484375 -0.640625 C 3.453125 -1.273438 2.660156 -2.160156 2.109375 -3.296875 C 1.566406 -4.429688 1.296875 -5.75 1.296875 -7.25 C 1.296875 -8.75 1.566406 -10.070312 2.109375 -11.21875 C 2.648438 -12.375 3.421875 -13.273438 4.421875 -13.921875 C 5.421875 -14.566406 6.582031 -14.890625 7.90625 -14.890625 C 8.738281 -14.890625 9.539062 -14.75 10.3125 -14.46875 C 11.082031 -14.195312 11.769531 -13.757812 12.375 -13.15625 C 12.988281 -12.5625 13.472656 -11.789062 13.828125 -10.84375 C 14.179688 -9.90625 14.359375 -8.785156 14.359375 -7.484375 L 14.359375 -6.5625 L 2.8125 -6.5625 L 2.8125 -8.5625 L 13.078125 -8.5625 L 12 -7.84375 C 12 -8.8125 11.835938 -9.664062 11.515625 -10.40625 C 11.203125 -11.15625 10.742188 -11.738281 10.140625 -12.15625 C 9.535156 -12.582031 8.789062 -12.796875 7.90625 -12.796875 C 7.019531 -12.796875 6.257812 -12.582031 5.625 -12.15625 C 5 -11.726562 4.515625 -11.160156 4.171875 -10.453125 C 3.835938 -9.753906 3.671875 -8.984375 3.671875 -8.140625 L 3.671875 -6.890625 C 3.671875 -5.816406 3.851562 -4.894531 4.21875 -4.125 C 4.59375 -3.363281 5.117188 -2.785156 5.796875 -2.390625 C 6.472656 -1.992188 7.265625 -1.796875 8.171875 -1.796875 C 8.765625 -1.796875 9.300781 -1.882812 9.78125 -2.0625 C 10.269531 -2.238281 10.6875 -2.5 11.03125 -2.84375 C 11.382812 -3.1875 11.648438 -3.613281 11.828125 -4.125 L 14.125 -3.609375 C 13.90625 -2.835938 13.519531 -2.15625 12.96875 -1.5625 C 12.414062 -0.96875 11.726562 -0.503906 10.90625 -0.171875 C 10.09375 0.148438 9.175781 0.3125 8.15625 0.3125 Z M 8.15625 0.3125 "/></g></g></g><g fill="#000000" fill-opacity="1"><g transform="translate(66.273125, 26.270272)"><g><path d="M 2.015625 0 L 2.015625 -14.6875 L 4.28125 -14.6875 L 4.28125 -12.421875 L 4.421875 -12.421875 C 4.691406 -13.160156 5.160156 -13.753906 5.828125 -14.203125 C 6.503906 -14.660156 7.285156 -14.890625 8.171875 -14.890625 C 8.347656 -14.890625 8.550781 -14.882812 8.78125 -14.875 C 9.019531 -14.875 9.203125 -14.867188 9.328125 -14.859375 L 9.328125 -12.46875 C 9.253906 -12.488281 9.078125 -12.515625 8.796875 -12.546875 C 8.515625 -12.585938 8.21875 -12.609375 7.90625 -12.609375 C 7.238281 -12.609375 6.632812 -12.460938 6.09375 -12.171875 C 5.5625 -11.890625 5.140625 -11.492188 4.828125 -10.984375 C 4.523438 -10.472656 4.375 -9.863281 4.375 -9.15625 L 4.375 0 Z M 2.015625 0 "/></g></g></g><g fill="#000000" fill-opacity="1"><g transform="translate(76.620943, 26.270272)"><g><path d="M 7.921875 -14.6875 L 7.921875 -12.65625 L 0.25 -12.65625 L 0.25 -14.6875 Z M 2.546875 -18.28125 L 4.90625 -18.28125 L 4.90625 -3.75 C 4.90625 -3.125 5.035156 -2.664062 5.296875 -2.375 C 5.554688 -2.082031 6 -1.9375 6.625 -1.9375 C 6.78125 -1.9375 6.972656 -1.945312 7.203125 -1.96875 C 7.441406 -2 7.660156 -2.03125 7.859375 -2.0625 L 8.25 -0.0625 C 8 0.0078125 7.71875 0.0625 7.40625 0.09375 C 7.101562 0.125 6.804688 0.140625 6.515625 0.140625 C 5.242188 0.140625 4.265625 -0.179688 3.578125 -0.828125 C 2.890625 -1.472656 2.546875 -2.382812 2.546875 -3.5625 Z M 2.546875 -18.28125 "/></g></g></g><g transform="matrix(1, 0, 0, 1, 84, 0.000000000000010603)"><g clip-path="url(#3ed1927b50)"><g clip-path="url(#facba3394f)"><g fill="#000000" fill-opacity="1"><g transform="translate(0.289115, 7.39457)"><g><path d="M 2.1875 -3.671875 L 2.1875 -3.171875 L 0.0625 -3.171875 L 0.0625 -3.671875 Z M 0.765625 0 L 0.765625 -4.203125 C 0.765625 -4.398438 0.8125 -4.566406 0.90625 -4.703125 C 1.007812 -4.847656 1.140625 -4.957031 1.296875 -5.03125 C 1.453125 -5.101562 1.617188 -5.140625 1.796875 -5.140625 C 1.921875 -5.140625 2.023438 -5.128906 2.109375 -5.109375 C 2.203125 -5.085938 2.269531 -5.070312 2.3125 -5.0625 L 2.1875 -4.546875 C 2.15625 -4.554688 2.109375 -4.566406 2.046875 -4.578125 C 1.992188 -4.585938 1.929688 -4.59375 1.859375 -4.59375 C 1.679688 -4.59375 1.550781 -4.546875 1.46875 -4.453125 C 1.394531 -4.367188 1.359375 -4.242188 1.359375 -4.078125 L 1.359375 0 Z M 0.765625 0 "/></g></g><g transform="translate(2.713479, 7.39457)"><g><path d="M 1.09375 -4.953125 L 1.09375 0 L 0.5 0 L 0.5 -4.953125 Z M 1.09375 -4.953125 "/></g></g><g transform="translate(4.309768, 7.39457)"><g><path d="M 2 0.078125 C 1.664062 0.078125 1.375 0 1.125 -0.15625 C 0.875 -0.3125 0.675781 -0.53125 0.53125 -0.8125 C 0.394531 -1.101562 0.328125 -1.4375 0.328125 -1.8125 C 0.328125 -2.195312 0.394531 -2.53125 0.53125 -2.8125 C 0.675781 -3.101562 0.875 -3.328125 1.125 -3.484375 C 1.375 -3.640625 1.664062 -3.71875 2 -3.71875 C 2.332031 -3.71875 2.625 -3.640625 2.875 -3.484375 C 3.132812 -3.328125 3.332031 -3.101562 3.46875 -2.8125 C 3.613281 -2.53125 3.6875 -2.195312 3.6875 -1.8125 C 3.6875 -1.4375 3.613281 -1.101562 3.46875 -0.8125 C 3.332031 -0.53125 3.132812 -0.3125 2.875 -0.15625 C 2.625 0 2.332031 0.078125 2 0.078125 Z M 2 -0.453125 C 2.25 -0.453125 2.453125 -0.515625 2.609375 -0.640625 C 2.765625 -0.765625 2.882812 -0.925781 2.96875 -1.125 C 3.050781 -1.332031 3.09375 -1.5625 3.09375 -1.8125 C 3.09375 -2.0625 3.050781 -2.289062 2.96875 -2.5 C 2.882812 -2.71875 2.765625 -2.890625 2.609375 -3.015625 C 2.453125 -3.140625 2.25 -3.203125 2 -3.203125 C 1.757812 -3.203125 1.554688 -3.140625 1.390625 -3.015625 C 1.234375 -2.890625 1.113281 -2.722656 1.03125 -2.515625 C 0.957031 -2.304688 0.921875 -2.070312 0.921875 -1.8125 C 0.921875 -1.5625 0.957031 -1.332031 1.03125 -1.125 C 1.113281 -0.925781 1.234375 -0.765625 1.390625 -0.640625 C 1.554688 -0.515625 1.757812 -0.453125 2 -0.453125 Z M 2 -0.453125 "/></g></g></g></g><g fill="#000000" fill-opacity="1"><g transform="translate(8.19407, 7.39457)"><g><path d="M 1.328125 0 L 0.203125 -3.671875 L 0.828125 -3.671875 L 1.28125 -2.0625 C 1.34375 -1.84375 1.40625 -1.59375 1.46875 -1.3125 C 1.539062 -1.039062 1.613281 -0.742188 1.6875 -0.421875 L 1.59375 -0.421875 C 1.65625 -0.734375 1.71875 -1.023438 1.78125 -1.296875 C 1.851562 -1.578125 1.921875 -1.832031 1.984375 -2.0625 L 2.4375 -3.671875 L 3.046875 -3.671875 L 3.5 -2.0625 C 3.550781 -1.832031 3.609375 -1.582031 3.671875 -1.3125 C 3.742188 -1.039062 3.816406 -0.742188 3.890625 -0.421875 L 3.78125 -0.421875 C 3.851562 -0.734375 3.921875 -1.023438 3.984375 -1.296875 C 4.054688 -1.578125 4.125 -1.832031 4.1875 -2.0625 L 4.640625 -3.671875 L 5.265625 -3.671875 L 4.15625 0 L 3.5625 0 L 3.078125 -1.65625 C 3.023438 -1.832031 2.976562 -2.003906 2.9375 -2.171875 C 2.894531 -2.347656 2.847656 -2.523438 2.796875 -2.703125 C 2.753906 -2.890625 2.710938 -3.078125 2.671875 -3.265625 L 2.8125 -3.265625 C 2.757812 -3.078125 2.710938 -2.890625 2.671875 -2.703125 C 2.628906 -2.523438 2.582031 -2.347656 2.53125 -2.171875 C 2.488281 -1.992188 2.441406 -1.820312 2.390625 -1.65625 L 1.921875 0 Z M 1.328125 0 "/></g></g></g></g></g></svg>