<svg width="276" height="286" viewBox="0 0 276 286" fill="none" xmlns="http://www.w3.org/2000/svg">
<foreignObject x="-39.0625" y="-40" width="354.117" height="366"><div xmlns="http://www.w3.org/1999/xhtml" style="backdrop-filter:blur(20px);clip-path:url(#bgblur_0_28257_68118_clip_path);height:100%;width:100%"></div></foreignObject><g filter="url(#filter0_ii_28257_68118)" data-figma-bg-blur-radius="40">
<path d="M0.9375 16C0.9375 7.16345 8.10094 0 16.9375 0H259.057C267.894 0 275.057 7.16344 275.057 16V270C275.057 278.837 267.894 286 259.057 286H16.9375C8.10093 286 0.9375 278.837 0.9375 270V16Z" fill="#F4F3EA" fill-opacity="0.48"/>
<path d="M97.7 46.496H99.476L102.964 51.12H101.188L97.7 46.496ZM103.268 44.336C103.268 46.2133 102.841 47.6533 101.988 48.656C101.135 49.6587 99.9027 50.16 98.292 50.16C96.6707 50.16 95.4333 49.6587 94.58 48.656C93.7267 47.6533 93.3 46.2133 93.3 44.336C93.3 42.4587 93.7267 41.024 94.58 40.032C95.4333 39.0293 96.6707 38.528 98.292 38.528C99.9027 38.528 101.135 39.0293 101.988 40.032C102.841 41.024 103.268 42.4587 103.268 44.336ZM101.684 44.336C101.684 42.8107 101.401 41.6853 100.836 40.96C100.281 40.2347 99.4333 39.872 98.292 39.872C97.1507 39.872 96.2973 40.2347 95.732 40.96C95.1667 41.6853 94.884 42.8107 94.884 44.336C94.884 45.8613 95.1667 46.992 95.732 47.728C96.2973 48.4533 97.1507 48.816 98.292 48.816C99.4333 48.816 100.281 48.4533 100.836 47.728C101.401 46.992 101.684 45.8613 101.684 44.336ZM110.479 41.888H111.999V50H110.479V48.816C110.223 49.2 109.913 49.52 109.551 49.776C109.188 50.032 108.697 50.16 108.079 50.16C107.204 50.16 106.505 49.9147 105.983 49.424C105.471 48.9333 105.215 48.1067 105.215 46.944V41.888H106.719V46.896C106.719 47.5893 106.868 48.0907 107.167 48.4C107.465 48.7093 107.903 48.864 108.479 48.864C109.108 48.864 109.599 48.6933 109.951 48.352C110.303 48 110.479 47.4347 110.479 46.656V41.888ZM121.603 50H120.691C119.816 50 119.374 49.3973 119.363 48.192L119.555 48.272C119.384 48.8053 119.086 49.2533 118.659 49.616C118.232 49.9787 117.603 50.16 116.771 50.16C115.843 50.16 115.128 49.9627 114.627 49.568C114.126 49.1627 113.875 48.528 113.875 47.664C113.875 47.0347 114.03 46.544 114.339 46.192C114.648 45.84 115.043 45.5947 115.523 45.456C116.003 45.3067 116.504 45.232 117.027 45.232H119.379V44.512C119.379 43.9787 119.235 43.5893 118.947 43.344C118.67 43.088 118.195 42.96 117.523 42.96C116.936 42.96 116.499 43.0613 116.211 43.264C115.923 43.456 115.747 43.7707 115.683 44.208H114.163C114.248 43.3973 114.6 42.7787 115.219 42.352C115.848 41.9253 116.632 41.712 117.571 41.712C117.955 41.712 118.339 41.7547 118.723 41.84C119.118 41.9147 119.475 42.0587 119.795 42.272C120.126 42.4853 120.387 42.784 120.579 43.168C120.782 43.552 120.883 44.0427 120.883 44.64V48.704H121.603V50ZM115.347 47.68C115.347 48.1067 115.475 48.4213 115.731 48.624C115.987 48.816 116.382 48.912 116.915 48.912C117.672 48.912 118.27 48.736 118.707 48.384C119.155 48.0213 119.379 47.5573 119.379 46.992V46.352H117.043C115.912 46.352 115.347 46.7947 115.347 47.68ZM124.704 50H123.184V41.888H124.704V43.28C125.11 42.352 125.814 41.888 126.816 41.888H127.52V43.168H126.576C125.328 43.168 124.704 43.8507 124.704 45.216V50ZM132.866 43.168H131.074V48.72H132.866V50H131.73C131.09 50 130.567 49.856 130.162 49.568C129.756 49.28 129.554 48.768 129.554 48.032V43.168H128.178V41.888H129.554V39.472H131.074V41.888H132.866V43.168ZM134.597 45.28H139.845C139.835 44.4693 139.643 43.8827 139.269 43.52C138.907 43.1467 138.368 42.96 137.653 42.96C136.843 42.96 136.251 43.2053 135.877 43.696C135.504 44.176 135.317 44.9067 135.317 45.888C135.317 46.8907 135.499 47.648 135.861 48.16C136.235 48.6613 136.869 48.912 137.765 48.912C138.373 48.912 138.811 48.8213 139.077 48.64C139.344 48.448 139.531 48.1867 139.637 47.856H141.221C141.072 48.5387 140.704 49.0933 140.117 49.52C139.531 49.9467 138.747 50.16 137.765 50.16C136.464 50.16 135.477 49.792 134.805 49.056C134.133 48.3093 133.797 47.2693 133.797 45.936C133.797 44.5707 134.133 43.5253 134.805 42.8C135.477 42.0747 136.427 41.712 137.653 41.712C138.336 41.712 138.955 41.8507 139.509 42.128C140.064 42.4053 140.507 42.8533 140.837 43.472C141.179 44.08 141.349 44.8907 141.349 45.904V46.4H134.581L134.597 45.28ZM144.736 50H143.216V41.888H144.736V43.28C145.141 42.352 145.845 41.888 146.848 41.888H147.552V43.168H146.608C145.36 43.168 144.736 43.8507 144.736 45.216V50ZM156.114 49.888C155.016 49.888 154.152 49.536 153.522 48.832C152.904 48.128 152.594 47.12 152.594 45.808C152.594 44.4533 152.909 43.4347 153.538 42.752C154.178 42.0587 155.037 41.712 156.114 41.712C156.85 41.712 157.448 41.8933 157.906 42.256C158.365 42.6187 158.701 43.1093 158.914 43.728C159.128 44.3467 159.234 45.04 159.234 45.808C159.234 46.5653 159.128 47.2533 158.914 47.872C158.701 48.4907 158.365 48.9813 157.906 49.344C157.448 49.7067 156.85 49.888 156.114 49.888ZM156.466 48.608C157.266 48.608 157.842 48.3573 158.194 47.856C158.557 47.3547 158.738 46.672 158.738 45.808C158.738 44.9333 158.557 44.2453 158.194 43.744C157.842 43.2427 157.266 42.992 156.466 42.992C155.634 42.992 155.032 43.2427 154.658 43.744C154.296 44.2453 154.114 44.9333 154.114 45.808C154.114 46.672 154.296 47.3547 154.658 47.856C155.032 48.3573 155.634 48.608 156.466 48.608ZM158.77 41.888H160.258V50H158.738V43.792L158.77 43.664V41.888ZM160.258 49.76C160.269 50.9867 159.986 51.904 159.41 52.512C158.834 53.1307 157.928 53.44 156.69 53.44C155.453 53.44 154.562 53.2107 154.018 52.752C153.485 52.2933 153.181 51.6747 153.106 50.896H154.69C154.722 51.1733 154.792 51.408 154.898 51.6C155.005 51.792 155.197 51.9307 155.474 52.016C155.752 52.112 156.157 52.16 156.69 52.16C157.266 52.16 157.698 52.0747 157.986 51.904C158.285 51.7333 158.488 51.472 158.594 51.12C158.701 50.768 158.749 50.3147 158.738 49.76H160.258ZM166.013 50.16C164.786 50.16 163.832 49.7973 163.149 49.072C162.477 48.3467 162.141 47.3067 162.141 45.952C162.141 44.5973 162.477 43.552 163.149 42.816C163.832 42.08 164.786 41.712 166.013 41.712C167.229 41.712 168.178 42.08 168.861 42.816C169.544 43.5413 169.885 44.5867 169.885 45.952C169.885 47.3173 169.544 48.3627 168.861 49.088C168.189 49.8027 167.24 50.16 166.013 50.16ZM166.013 48.864C166.834 48.864 167.432 48.6133 167.805 48.112C168.178 47.6 168.365 46.88 168.365 45.952C168.365 45.024 168.178 44.304 167.805 43.792C167.432 43.2693 166.834 43.008 166.013 43.008C165.192 43.008 164.594 43.2693 164.221 43.792C163.848 44.304 163.661 45.024 163.661 45.952C163.661 46.88 163.848 47.6 164.221 48.112C164.594 48.6133 165.192 48.864 166.013 48.864ZM178.978 50H178.066C177.191 50 176.749 49.3973 176.738 48.192L176.93 48.272C176.759 48.8053 176.461 49.2533 176.034 49.616C175.607 49.9787 174.978 50.16 174.146 50.16C173.218 50.16 172.503 49.9627 172.002 49.568C171.501 49.1627 171.25 48.528 171.25 47.664C171.25 47.0347 171.405 46.544 171.714 46.192C172.023 45.84 172.418 45.5947 172.898 45.456C173.378 45.3067 173.879 45.232 174.402 45.232H176.754V44.512C176.754 43.9787 176.61 43.5893 176.322 43.344C176.045 43.088 175.57 42.96 174.898 42.96C174.311 42.96 173.874 43.0613 173.586 43.264C173.298 43.456 173.122 43.7707 173.058 44.208H171.538C171.623 43.3973 171.975 42.7787 172.594 42.352C173.223 41.9253 174.007 41.712 174.946 41.712C175.33 41.712 175.714 41.7547 176.098 41.84C176.493 41.9147 176.85 42.0587 177.17 42.272C177.501 42.4853 177.762 42.784 177.954 43.168C178.157 43.552 178.258 44.0427 178.258 44.64V48.704H178.978V50ZM172.722 47.68C172.722 48.1067 172.85 48.4213 173.106 48.624C173.362 48.816 173.757 48.912 174.29 48.912C175.047 48.912 175.645 48.736 176.082 48.384C176.53 48.0213 176.754 47.5573 176.754 46.992V46.352H174.418C173.287 46.352 172.722 46.7947 172.722 47.68ZM182.079 50H180.559V38.528H182.079V50Z" fill="#1A1A17"/>
<path d="M41.3131 190C36.6874 190 32.9009 186.244 33.2902 181.634C34.1796 171.105 36.744 160.758 40.9069 150.966C46.1683 138.591 53.88 127.347 63.6018 117.875C73.3235 108.404 84.865 100.89 97.5671 95.7643C110.269 90.6383 123.883 88 137.632 88C151.381 88 164.995 90.6383 177.697 95.7643C190.399 100.89 201.94 108.404 211.662 117.875C221.384 127.347 229.095 138.591 234.357 150.966C238.52 160.758 241.084 171.105 241.973 181.634C242.363 186.244 238.576 190 233.951 190C229.325 190 225.619 186.241 225.155 181.638C224.311 173.255 222.202 165.023 218.881 157.212C214.461 146.817 207.983 137.371 199.817 129.415C191.651 121.459 181.956 115.148 171.286 110.842C160.617 106.536 149.181 104.32 137.632 104.32C126.083 104.32 114.647 106.536 103.977 110.842C93.3077 115.148 83.6129 121.459 75.4466 129.415C67.2803 137.371 60.8025 146.817 56.3829 157.212C53.0621 165.023 50.9522 173.255 50.1084 181.638C49.6451 186.241 45.9387 190 41.3131 190Z" fill="#1A1A17" fill-opacity="0.08"/>
<path d="M41.3131 190C36.6874 190 32.9009 186.243 33.2902 181.634C34.8586 163.063 41.6262 145.207 52.9324 130.046C65.9279 112.619 84.2524 99.6485 105.28 92.9922C126.307 86.3359 148.957 86.3359 169.984 92.9922C188.263 98.7785 204.499 109.336 216.968 123.445C220.057 126.94 219.194 132.266 215.387 134.961C211.712 137.563 206.661 136.727 203.641 133.386C193.254 121.889 179.855 113.277 164.808 108.513C147.145 102.922 128.119 102.922 110.456 108.513C92.7931 114.105 77.4005 125 66.4843 139.639C57.2582 152.01 51.63 166.519 50.1083 181.638C49.6451 186.241 45.9387 190 41.3131 190Z" fill="url(#paint0_linear_28257_68118)"/>
<path d="M95.8305 176.68C95.8305 175.107 96.3371 173.653 97.3505 172.32C98.3905 170.96 99.9371 169.827 101.99 168.92C100.417 167.907 99.2038 166.84 98.3505 165.72C97.4971 164.573 97.0705 163.147 97.0705 161.44C97.0705 159.867 97.4838 158.52 98.3105 157.4C99.1638 156.253 100.284 155.387 101.67 154.8C103.057 154.213 104.55 153.92 106.15 153.92C108.737 153.92 110.817 154.52 112.39 155.72C113.964 156.92 114.75 158.52 114.75 160.52C114.75 162.04 114.284 163.453 113.35 164.76C112.444 166.04 111.124 167.16 109.39 168.12C111.524 169.32 113.177 170.533 114.35 171.76C115.524 172.987 116.11 174.507 116.11 176.32C116.11 177.947 115.63 179.373 114.67 180.6C113.737 181.8 112.484 182.733 110.91 183.4C109.337 184.067 107.63 184.4 105.79 184.4C104.084 184.4 102.47 184.133 100.95 183.6C99.4571 183.067 98.2305 182.227 97.2705 181.08C96.3105 179.907 95.8305 178.44 95.8305 176.68ZM100.75 160.52C100.75 161.48 101.044 162.333 101.63 163.08C102.217 163.827 102.937 164.467 103.79 165C104.644 165.533 105.87 166.227 107.47 167.08C108.67 166.44 109.617 165.627 110.31 164.64C111.004 163.653 111.35 162.587 111.35 161.44C111.35 159.68 110.87 158.307 109.91 157.32C108.95 156.307 107.657 155.8 106.03 155.8C104.564 155.8 103.31 156.227 102.27 157.08C101.257 157.933 100.75 159.08 100.75 160.52ZM111.87 177.16C111.87 176.2 111.59 175.36 111.03 174.64C110.47 173.893 109.764 173.253 108.91 172.72C108.084 172.187 106.937 171.547 105.47 170.8C104.724 170.427 104.164 170.133 103.79 169.92C102.537 170.56 101.524 171.413 100.75 172.48C99.9771 173.547 99.5905 174.693 99.5905 175.92C99.5905 177.893 100.164 179.467 101.31 180.64C102.484 181.787 104.07 182.36 106.07 182.36C107.03 182.36 107.95 182.147 108.83 181.72C109.737 181.293 110.47 180.68 111.03 179.88C111.59 179.08 111.87 178.173 111.87 177.16ZM133.343 184H120.063L119.023 182.2C120.596 179.213 122.53 175.267 124.823 170.36C127.116 165.427 129.17 160.907 130.983 156.8H132.023L135.223 158.52L124.423 179.32L122.823 181.76L133.343 181.2L133.503 173.4L136.903 173.12V181L142.543 180.72V184H136.903V190.44H133.343V184ZM167.845 153.96H170.885L158.085 184H155.045L167.845 153.96ZM151.565 171.16C150.125 171.16 148.858 170.8 147.765 170.08C146.672 169.333 145.832 168.347 145.245 167.12C144.685 165.893 144.405 164.533 144.405 163.04C144.405 161.28 144.752 159.76 145.445 158.48C146.165 157.2 147.125 156.227 148.325 155.56C149.525 154.893 150.832 154.56 152.245 154.56C154.672 154.56 156.472 155.32 157.645 156.84C158.818 158.36 159.405 160.347 159.405 162.8C159.405 164.533 159.045 166.04 158.325 167.32C157.605 168.573 156.645 169.533 155.445 170.2C154.272 170.84 152.978 171.16 151.565 171.16ZM151.845 169.08C153.098 169.08 154.058 168.533 154.725 167.44C155.392 166.347 155.725 164.853 155.725 162.96C155.725 161.093 155.405 159.587 154.765 158.44C154.152 157.267 153.232 156.68 152.005 156.68C150.752 156.68 149.792 157.227 149.125 158.32C148.458 159.413 148.125 160.92 148.125 162.84C148.125 164.573 148.445 166.053 149.085 167.28C149.725 168.48 150.645 169.08 151.845 169.08ZM173.685 183.2C172.245 183.2 170.978 182.84 169.885 182.12C168.818 181.373 167.992 180.387 167.405 179.16C166.845 177.907 166.565 176.533 166.565 175.04C166.565 173.307 166.912 171.8 167.605 170.52C168.325 169.24 169.285 168.267 170.485 167.6C171.685 166.907 172.992 166.56 174.405 166.56C176.778 166.56 178.552 167.333 179.725 168.88C180.925 170.4 181.525 172.373 181.525 174.8C181.525 176.533 181.165 178.04 180.445 179.32C179.725 180.573 178.765 181.533 177.565 182.2C176.392 182.867 175.098 183.2 173.685 183.2ZM173.925 181.08C175.178 181.08 176.152 180.533 176.845 179.44C177.538 178.347 177.885 176.853 177.885 174.96C177.885 173.093 177.565 171.587 176.925 170.44C176.312 169.267 175.392 168.68 174.165 168.68C172.912 168.68 171.938 169.24 171.245 170.36C170.578 171.453 170.245 172.947 170.245 174.84C170.245 176.6 170.565 178.08 171.205 179.28C171.845 180.48 172.752 181.08 173.925 181.08Z" fill="#1A1A17"/>
<path d="M79.6177 235.454C79.5524 234.931 79.3237 234.558 78.9317 234.334C78.5491 234.11 78.0264 233.998 77.3637 233.998C75.8984 233.998 75.1657 234.549 75.1657 235.65C75.1657 235.949 75.2311 236.196 75.3617 236.392C75.4924 236.588 75.6557 236.747 75.8517 236.868C76.0571 236.989 76.2717 237.087 76.4957 237.162C76.7197 237.227 76.9251 237.288 77.1117 237.344L78.1197 237.624C78.3904 237.699 78.6891 237.797 79.0157 237.918C79.3424 238.039 79.6504 238.198 79.9397 238.394C80.2384 238.59 80.4811 238.847 80.6677 239.164C80.8637 239.481 80.9617 239.873 80.9617 240.34C80.9617 241.171 80.6631 241.852 80.0657 242.384C79.4684 242.916 78.5584 243.182 77.3357 243.182C76.2064 243.182 75.3431 242.949 74.7457 242.482C74.1484 242.006 73.8171 241.362 73.7517 240.55H74.9277C74.9931 241.157 75.2404 241.577 75.6697 241.81C76.1084 242.034 76.6637 242.146 77.3357 242.146C78.1104 242.146 78.7124 241.997 79.1417 241.698C79.5711 241.39 79.7857 240.928 79.7857 240.312C79.7857 239.948 79.6924 239.663 79.5057 239.458C79.3284 239.243 79.0857 239.075 78.7777 238.954C78.4791 238.823 78.1524 238.711 77.7977 238.618L76.5377 238.268C75.7444 238.053 75.1237 237.745 74.6757 237.344C74.2371 236.933 74.0177 236.387 74.0177 235.706C74.0177 234.847 74.3257 234.175 74.9417 233.69C75.5671 233.205 76.3884 232.962 77.4057 232.962C78.4324 232.962 79.2351 233.195 79.8137 233.662C80.4017 234.119 80.7144 234.717 80.7517 235.454H79.6177ZM87.0909 235.93H88.2109V243H87.0909V241.838C86.8576 242.221 86.5682 242.533 86.2229 242.776C85.8776 243.019 85.4296 243.14 84.8789 243.14C84.1136 243.14 83.5209 242.921 83.1009 242.482C82.6809 242.034 82.4709 241.329 82.4709 240.368V235.93H83.5909V240.326C83.5909 241.007 83.7309 241.483 84.0109 241.754C84.2909 242.025 84.6969 242.16 85.2289 242.16C85.7796 242.16 86.2276 242.006 86.5729 241.698C86.9182 241.381 87.0909 240.849 87.0909 240.102V235.93ZM93.3832 243.14C92.2352 243.14 91.3812 242.827 90.8212 242.202C90.2612 241.567 89.9812 240.657 89.9812 239.472C89.9812 238.277 90.2659 237.367 90.8352 236.742C91.4139 236.107 92.2539 235.79 93.3552 235.79C94.1766 235.79 94.8486 235.995 95.3712 236.406C95.9032 236.807 96.2112 237.344 96.2952 238.016H95.1752C95.1192 237.652 94.9559 237.353 94.6852 237.12C94.4146 236.887 93.9759 236.77 93.3692 236.77C92.7999 236.77 92.3472 236.887 92.0112 237.12C91.6846 237.344 91.4512 237.661 91.3112 238.072C91.1712 238.473 91.1012 238.94 91.1012 239.472C91.1012 239.995 91.1712 240.461 91.3112 240.872C91.4512 241.273 91.6846 241.591 92.0112 241.824C92.3472 242.048 92.7999 242.16 93.3692 242.16C93.9479 242.16 94.3772 242.062 94.6572 241.866C94.9466 241.661 95.1239 241.357 95.1892 240.956H96.3232C96.2486 241.563 95.9592 242.081 95.4552 242.51C94.9606 242.93 94.2699 243.14 93.3832 243.14ZM100.998 243.14C99.8505 243.14 98.9965 242.827 98.4365 242.202C97.8765 241.567 97.5965 240.657 97.5965 239.472C97.5965 238.277 97.8811 237.367 98.4505 236.742C99.0291 236.107 99.8691 235.79 100.97 235.79C101.792 235.79 102.464 235.995 102.986 236.406C103.518 236.807 103.826 237.344 103.91 238.016H102.79C102.734 237.652 102.571 237.353 102.3 237.12C102.03 236.887 101.591 236.77 100.984 236.77C100.415 236.77 99.9625 236.887 99.6265 237.12C99.2998 237.344 99.0665 237.661 98.9265 238.072C98.7865 238.473 98.7165 238.94 98.7165 239.472C98.7165 239.995 98.7865 240.461 98.9265 240.872C99.0665 241.273 99.2998 241.591 99.6265 241.824C99.9625 242.048 100.415 242.16 100.984 242.16C101.563 242.16 101.992 242.062 102.272 241.866C102.562 241.661 102.739 241.357 102.804 240.956H103.938C103.864 241.563 103.574 242.081 103.07 242.51C102.576 242.93 101.885 243.14 100.998 243.14ZM105.758 238.94H110.56C110.56 238.156 110.387 237.596 110.042 237.26C109.696 236.915 109.188 236.742 108.516 236.742C107.769 236.742 107.218 236.989 106.864 237.484C106.509 237.979 106.332 238.632 106.332 239.444C106.332 240.256 106.504 240.919 106.85 241.432C107.204 241.936 107.792 242.188 108.614 242.188C109.164 242.188 109.566 242.099 109.818 241.922C110.07 241.745 110.252 241.502 110.364 241.194H111.54C111.39 241.763 111.059 242.23 110.546 242.594C110.042 242.958 109.398 243.14 108.614 243.14C107.494 243.14 106.644 242.813 106.066 242.16C105.496 241.507 105.212 240.606 105.212 239.458C105.212 238.273 105.496 237.367 106.066 236.742C106.644 236.107 107.461 235.79 108.516 235.79C109.057 235.79 109.566 235.907 110.042 236.14C110.527 236.364 110.919 236.747 111.218 237.288C111.526 237.82 111.68 238.543 111.68 239.458V239.808H105.744L105.758 238.94ZM117.429 237.792C117.364 237.428 117.21 237.167 116.967 237.008C116.725 236.849 116.365 236.77 115.889 236.77C115.376 236.77 114.979 236.859 114.699 237.036C114.429 237.204 114.293 237.437 114.293 237.736C114.293 238.053 114.401 238.287 114.615 238.436C114.839 238.585 115.166 238.711 115.595 238.814L116.715 239.08C118.013 239.388 118.661 240.046 118.661 241.054C118.661 241.651 118.423 242.151 117.947 242.552C117.471 242.944 116.748 243.14 115.777 243.14C114.909 243.14 114.242 242.967 113.775 242.622C113.318 242.277 113.043 241.749 112.949 241.04H114.125C114.181 241.413 114.326 241.693 114.559 241.88C114.793 242.057 115.189 242.146 115.749 242.146C116.384 242.146 116.837 242.053 117.107 241.866C117.378 241.679 117.513 241.432 117.513 241.124C117.513 240.825 117.411 240.592 117.205 240.424C117 240.247 116.683 240.111 116.253 240.018L115.133 239.752C113.836 239.444 113.187 238.795 113.187 237.806C113.187 237.19 113.416 236.7 113.873 236.336C114.34 235.972 115.012 235.79 115.889 235.79C117.513 235.79 118.391 236.457 118.521 237.792H117.429ZM124.402 237.792C124.337 237.428 124.183 237.167 123.94 237.008C123.697 236.849 123.338 236.77 122.862 236.77C122.349 236.77 121.952 236.859 121.672 237.036C121.401 237.204 121.266 237.437 121.266 237.736C121.266 238.053 121.373 238.287 121.588 238.436C121.812 238.585 122.139 238.711 122.568 238.814L123.688 239.08C124.985 239.388 125.634 240.046 125.634 241.054C125.634 241.651 125.396 242.151 124.92 242.552C124.444 242.944 123.721 243.14 122.75 243.14C121.882 243.14 121.215 242.967 120.748 242.622C120.291 242.277 120.015 241.749 119.922 241.04H121.098C121.154 241.413 121.299 241.693 121.532 241.88C121.765 242.057 122.162 242.146 122.722 242.146C123.357 242.146 123.809 242.053 124.08 241.866C124.351 241.679 124.486 241.432 124.486 241.124C124.486 240.825 124.383 240.592 124.178 240.424C123.973 240.247 123.655 240.111 123.226 240.018L122.106 239.752C120.809 239.444 120.16 238.795 120.16 237.806C120.16 237.19 120.389 236.7 120.846 236.336C121.313 235.972 121.985 235.79 122.862 235.79C124.486 235.79 125.363 236.457 125.494 237.792H124.402ZM136.192 235.454C136.127 234.931 135.898 234.558 135.506 234.334C135.123 234.11 134.601 233.998 133.938 233.998C132.473 233.998 131.74 234.549 131.74 235.65C131.74 235.949 131.805 236.196 131.936 236.392C132.067 236.588 132.23 236.747 132.426 236.868C132.631 236.989 132.846 237.087 133.07 237.162C133.294 237.227 133.499 237.288 133.686 237.344L134.694 237.624C134.965 237.699 135.263 237.797 135.59 237.918C135.917 238.039 136.225 238.198 136.514 238.394C136.813 238.59 137.055 238.847 137.242 239.164C137.438 239.481 137.536 239.873 137.536 240.34C137.536 241.171 137.237 241.852 136.64 242.384C136.043 242.916 135.133 243.182 133.91 243.182C132.781 243.182 131.917 242.949 131.32 242.482C130.723 242.006 130.391 241.362 130.326 240.55H131.502C131.567 241.157 131.815 241.577 132.244 241.81C132.683 242.034 133.238 242.146 133.91 242.146C134.685 242.146 135.287 241.997 135.716 241.698C136.145 241.39 136.36 240.928 136.36 240.312C136.36 239.948 136.267 239.663 136.08 239.458C135.903 239.243 135.66 239.075 135.352 238.954C135.053 238.823 134.727 238.711 134.372 238.618L133.112 238.268C132.319 238.053 131.698 237.745 131.25 237.344C130.811 236.933 130.592 236.387 130.592 235.706C130.592 234.847 130.9 234.175 131.516 233.69C132.141 233.205 132.963 232.962 133.98 232.962C135.007 232.962 135.809 233.195 136.388 233.662C136.976 234.119 137.289 234.717 137.326 235.454H136.192ZM142.223 236.91H140.599V242.02H142.223V243H141.299C140.944 243 140.627 242.958 140.347 242.874C140.076 242.781 139.861 242.617 139.703 242.384C139.553 242.151 139.479 241.819 139.479 241.39V236.91H138.247V235.93H139.479V233.816H140.599V235.93H142.223V236.91ZM146.414 243.14C145.368 243.14 144.556 242.827 143.978 242.202C143.408 241.567 143.124 240.657 143.124 239.472C143.124 238.277 143.408 237.367 143.978 236.742C144.556 236.107 145.368 235.79 146.414 235.79C147.459 235.79 148.266 236.107 148.836 236.742C149.405 237.367 149.69 238.277 149.69 239.472C149.69 240.657 149.405 241.567 148.836 242.202C148.266 242.827 147.459 243.14 146.414 243.14ZM146.414 242.16C147.198 242.16 147.753 241.913 148.08 241.418C148.406 240.923 148.57 240.275 148.57 239.472C148.57 238.669 148.406 238.021 148.08 237.526C147.753 237.022 147.198 236.77 146.414 236.77C145.62 236.77 145.06 237.022 144.734 237.526C144.407 238.021 144.244 238.669 144.244 239.472C144.244 240.275 144.407 240.923 144.734 241.418C145.06 241.913 145.62 242.16 146.414 242.16ZM152.566 243H151.446V235.93H152.566V237.232C152.725 236.812 152.958 236.49 153.266 236.266C153.574 236.042 153.957 235.93 154.414 235.93H155.044V236.91H154.274C153.724 236.91 153.299 237.069 153 237.386C152.711 237.694 152.566 238.151 152.566 238.758V243ZM161.39 235.93H162.552L160.116 244.134C159.929 244.769 159.654 245.207 159.29 245.45C158.926 245.702 158.445 245.828 157.848 245.828H156.91V244.848H157.778C158.151 244.848 158.441 244.783 158.646 244.652C158.851 244.531 159.01 244.274 159.122 243.882L161.39 235.93ZM156.938 235.93L158.562 240.97C158.693 241.371 158.809 241.647 158.912 241.796C159.015 241.945 159.164 242.02 159.36 242.02H160.214V243H159.192C158.875 243 158.623 242.949 158.436 242.846C158.249 242.734 158.091 242.547 157.96 242.286C157.829 242.025 157.685 241.665 157.526 241.208L155.762 235.93H156.938Z" fill="#1A1A17"/>
<foreignObject x="131" y="182" width="112" height="112"><div xmlns="http://www.w3.org/1999/xhtml" style="backdrop-filter:blur(20px);clip-path:url(#bgblur_1_28257_68118_clip_path);height:100%;width:100%"></div></foreignObject><g filter="url(#filter1_ii_28257_68118)" data-figma-bg-blur-radius="40">
<path d="M171 238C171 229.163 178.163 222 187 222C195.837 222 203 229.163 203 238C203 246.837 195.837 254 187 254C178.163 254 171 246.837 171 238Z" fill="#B6E400"/>
<path d="M182.336 238.001H191.003M187.003 233.334L191.669 238.001L187.003 242.667" stroke="#1A1A17" stroke-linecap="round" stroke-linejoin="round"/>
</g>
</g>
<defs>
<filter id="filter0_ii_28257_68118" x="-39.0625" y="-40" width="354.117" height="366" filterUnits="userSpaceOnUse" color-interpolation-filters="sRGB">
<feFlood flood-opacity="0" result="BackgroundImageFix"/>
<feBlend mode="normal" in="SourceGraphic" in2="BackgroundImageFix" result="shape"/>
<feColorMatrix in="SourceAlpha" type="matrix" values="0 0 0 0 0 0 0 0 0 0 0 0 0 0 0 0 0 0 127 0" result="hardAlpha"/>
<feOffset dy="-1"/>
<feComposite in2="hardAlpha" operator="arithmetic" k2="-1" k3="1"/>
<feColorMatrix type="matrix" values="0 0 0 0 0.101961 0 0 0 0 0.101961 0 0 0 0 0.0901961 0 0 0 0.08 0"/>
<feBlend mode="normal" in2="shape" result="effect1_innerShadow_28257_68118"/>
<feColorMatrix in="SourceAlpha" type="matrix" values="0 0 0 0 0 0 0 0 0 0 0 0 0 0 0 0 0 0 127 0" result="hardAlpha"/>
<feOffset dy="1"/>
<feComposite in2="hardAlpha" operator="arithmetic" k2="-1" k3="1"/>
<feColorMatrix type="matrix" values="0 0 0 0 0.101961 0 0 0 0 0.101961 0 0 0 0 0.0901961 0 0 0 0.04 0"/>
<feBlend mode="normal" in2="effect1_innerShadow_28257_68118" result="effect2_innerShadow_28257_68118"/>
</filter>
<clipPath id="bgblur_0_28257_68118_clip_path" transform="translate(39.0625 40)"><path d="M0.9375 16C0.9375 7.16345 8.10094 0 16.9375 0H259.057C267.894 0 275.057 7.16344 275.057 16V270C275.057 278.837 267.894 286 259.057 286H16.9375C8.10093 286 0.9375 278.837 0.9375 270V16Z"/>
</clipPath><filter id="filter1_ii_28257_68118" x="131" y="182" width="112" height="112" filterUnits="userSpaceOnUse" color-interpolation-filters="sRGB">
<feFlood flood-opacity="0" result="BackgroundImageFix"/>
<feBlend mode="normal" in="SourceGraphic" in2="BackgroundImageFix" result="shape"/>
<feColorMatrix in="SourceAlpha" type="matrix" values="0 0 0 0 0 0 0 0 0 0 0 0 0 0 0 0 0 0 127 0" result="hardAlpha"/>
<feOffset dy="-1"/>
<feComposite in2="hardAlpha" operator="arithmetic" k2="-1" k3="1"/>
<feColorMatrix type="matrix" values="0 0 0 0 0.101961 0 0 0 0 0.101961 0 0 0 0 0.0901961 0 0 0 0.08 0"/>
<feBlend mode="normal" in2="shape" result="effect1_innerShadow_28257_68118"/>
<feColorMatrix in="SourceAlpha" type="matrix" values="0 0 0 0 0 0 0 0 0 0 0 0 0 0 0 0 0 0 127 0" result="hardAlpha"/>
<feOffset dy="1"/>
<feComposite in2="hardAlpha" operator="arithmetic" k2="-1" k3="1"/>
<feColorMatrix type="matrix" values="0 0 0 0 0.101961 0 0 0 0 0.101961 0 0 0 0 0.0901961 0 0 0 0.04 0"/>
<feBlend mode="normal" in2="effect1_innerShadow_28257_68118" result="effect2_innerShadow_28257_68118"/>
</filter>
<clipPath id="bgblur_1_28257_68118_clip_path" transform="translate(-131 -182)"><path d="M171 238C171 229.163 178.163 222 187 222C195.837 222 203 229.163 203 238C203 246.837 195.837 254 187 254C178.163 254 171 246.837 171 238Z"/>
</clipPath><linearGradient id="paint0_linear_28257_68118" x1="32.9375" y1="139" x2="222.331" y2="139" gradientUnits="userSpaceOnUse">
<stop stop-color="#B6E400"/>
<stop offset="1" stop-color="#F4F3EA" stop-opacity="0"/>
</linearGradient>
</defs>
</svg>
